<mxfile host="www.draw.io" modified="2020-03-07T15:39:12.656Z" agent="Mozilla/5.0 (Windows NT 10.0; WOW64) AppleWebKit/537.36 (KHTML, like Gecko) Chrome/80.0.3987.132 Safari/537.36" etag="S2vZQMrrKhggyDXFvbSF" version="12.8.1" type="github" pages="2">
  <diagram id="Lx7UjUvaqmN4qIO5GQPM" name="第 1 页">
    <mxGraphModel dx="1835" dy="1662" grid="1" gridSize="10" guides="1" tooltips="1" connect="1" arrows="1" fold="1" page="1" pageScale="1" pageWidth="827" pageHeight="1169" math="0" shadow="0">
      <root>
        <mxCell id="0" />
        <mxCell id="1" parent="0" />
        <mxCell id="ZrPnzG4gwPI1K-78CBUd-1" value="" style="rounded=0;whiteSpace=wrap;html=1;strokeColor=#000000;strokeWidth=2;" parent="1" vertex="1">
          <mxGeometry x="590" y="-60" width="170" height="500" as="geometry" />
        </mxCell>
        <mxCell id="ZrPnzG4gwPI1K-78CBUd-2" value="" style="rounded=0;whiteSpace=wrap;html=1;strokeColor=#000000;strokeWidth=2;" parent="1" vertex="1">
          <mxGeometry x="155" y="-59" width="410" height="193" as="geometry" />
        </mxCell>
        <mxCell id="ZrPnzG4gwPI1K-78CBUd-3" value="&lt;font style=&quot;font-size: 16px&quot;&gt;机房，机柜设施&lt;/font&gt;" style="rounded=0;whiteSpace=wrap;html=1;fillColor=none;strokeColor=none;" parent="1" vertex="1">
          <mxGeometry x="170" y="82" width="115" height="40" as="geometry" />
        </mxCell>
        <mxCell id="ZrPnzG4gwPI1K-78CBUd-4" style="edgeStyle=orthogonalEdgeStyle;rounded=0;orthogonalLoop=1;jettySize=auto;html=1;entryX=0;entryY=0.5;entryDx=0;entryDy=0;startArrow=none;startFill=0;strokeWidth=2;" parent="1" source="ZrPnzG4gwPI1K-78CBUd-5" target="ZrPnzG4gwPI1K-78CBUd-6" edge="1">
          <mxGeometry relative="1" as="geometry" />
        </mxCell>
        <mxCell id="ZrPnzG4gwPI1K-78CBUd-5" value="" style="shadow=0;dashed=0;html=1;strokeColor=none;labelPosition=center;verticalLabelPosition=bottom;verticalAlign=top;align=center;shape=mxgraph.mscae.enterprise.user_permissions;fillColor=#0078D7;" parent="1" vertex="1">
          <mxGeometry x="175" y="14" width="60" height="50" as="geometry" />
        </mxCell>
        <mxCell id="ZrPnzG4gwPI1K-78CBUd-6" value="&lt;font style=&quot;font-size: 14px&quot;&gt;API服务入口&lt;/font&gt;" style="rounded=1;whiteSpace=wrap;html=1;strokeColor=#001DBC;fillColor=#0050ef;strokeWidth=2;fontColor=#ffffff;" parent="1" vertex="1">
          <mxGeometry x="285" y="20" width="90" height="38" as="geometry" />
        </mxCell>
        <mxCell id="ZrPnzG4gwPI1K-78CBUd-7" style="edgeStyle=orthogonalEdgeStyle;rounded=0;orthogonalLoop=1;jettySize=auto;html=1;entryX=1;entryY=0.5;entryDx=0;entryDy=0;startArrow=classic;startFill=1;strokeWidth=2;" parent="1" source="ZrPnzG4gwPI1K-78CBUd-8" target="ZrPnzG4gwPI1K-78CBUd-6" edge="1">
          <mxGeometry relative="1" as="geometry" />
        </mxCell>
        <mxCell id="ZrPnzG4gwPI1K-78CBUd-8" value="&lt;font style=&quot;font-size: 14px&quot;&gt;边缘控制器&lt;/font&gt;" style="rounded=0;whiteSpace=wrap;html=1;strokeColor=#BD7000;strokeWidth=2;fillColor=#f0a30a;fontColor=#ffffff;" parent="1" vertex="1">
          <mxGeometry x="428" y="24" width="110" height="30" as="geometry" />
        </mxCell>
        <mxCell id="ZrPnzG4gwPI1K-78CBUd-9" style="edgeStyle=orthogonalEdgeStyle;rounded=0;orthogonalLoop=1;jettySize=auto;html=1;exitX=0.5;exitY=0;exitDx=0;exitDy=0;entryX=0.5;entryY=1;entryDx=0;entryDy=0;startArrow=classic;startFill=1;strokeWidth=2;" parent="1" source="ZrPnzG4gwPI1K-78CBUd-10" target="ZrPnzG4gwPI1K-78CBUd-8" edge="1">
          <mxGeometry relative="1" as="geometry" />
        </mxCell>
        <mxCell id="ZrPnzG4gwPI1K-78CBUd-10" value="&lt;font style=&quot;font-size: 14px&quot;&gt;消息处理服务器&lt;/font&gt;" style="rounded=0;whiteSpace=wrap;html=1;strokeColor=#BD7000;strokeWidth=2;fillColor=#f0a30a;fontColor=#ffffff;" parent="1" vertex="1">
          <mxGeometry x="428" y="87" width="110" height="30" as="geometry" />
        </mxCell>
        <mxCell id="ZrPnzG4gwPI1K-78CBUd-11" value="" style="rounded=0;whiteSpace=wrap;html=1;strokeColor=#000000;strokeWidth=2;fillColor=#FFFFCC;" parent="1" vertex="1">
          <mxGeometry x="155" y="218.5" width="410" height="280" as="geometry" />
        </mxCell>
        <mxCell id="ZrPnzG4gwPI1K-78CBUd-12" value="&lt;font style=&quot;font-size: 16px&quot;&gt;服务器集群接入环境&lt;/font&gt;" style="rounded=0;whiteSpace=wrap;html=1;fillColor=none;strokeColor=none;" parent="1" vertex="1">
          <mxGeometry x="155" y="218.5" width="85" height="38" as="geometry" />
        </mxCell>
        <mxCell id="ZrPnzG4gwPI1K-78CBUd-13" style="edgeStyle=orthogonalEdgeStyle;rounded=0;orthogonalLoop=1;jettySize=auto;html=1;entryX=0.5;entryY=0;entryDx=0;entryDy=0;startArrow=classic;startFill=1;strokeWidth=2;" parent="1" source="ZrPnzG4gwPI1K-78CBUd-15" target="ZrPnzG4gwPI1K-78CBUd-26" edge="1">
          <mxGeometry relative="1" as="geometry">
            <Array as="points">
              <mxPoint x="285" y="360" />
              <mxPoint x="285" y="360" />
            </Array>
          </mxGeometry>
        </mxCell>
        <mxCell id="ZrPnzG4gwPI1K-78CBUd-15" value="&lt;font style=&quot;font-size: 14px&quot;&gt;动态边缘运行时环境&lt;/font&gt;" style="rounded=0;whiteSpace=wrap;html=1;strokeColor=#BD7000;strokeWidth=2;fillColor=#f0a30a;fontColor=#ffffff;" parent="1" vertex="1">
          <mxGeometry x="205" y="288.5" width="260" height="60" as="geometry" />
        </mxCell>
        <mxCell id="ZrPnzG4gwPI1K-78CBUd-16" value="&lt;span style=&quot;font-size: 14px&quot;&gt;配置&lt;/span&gt;" style="rounded=0;whiteSpace=wrap;html=1;strokeColor=#006EAF;strokeWidth=2;fillColor=#1ba1e2;fontColor=#ffffff;" parent="1" vertex="1">
          <mxGeometry x="205" y="257.5" width="40" height="30" as="geometry" />
        </mxCell>
        <mxCell id="ZrPnzG4gwPI1K-78CBUd-17" value="&lt;span style=&quot;font-size: 14px&quot;&gt;卷&lt;/span&gt;" style="rounded=0;whiteSpace=wrap;html=1;strokeColor=#006EAF;strokeWidth=2;fillColor=#1ba1e2;fontColor=#ffffff;" parent="1" vertex="1">
          <mxGeometry x="245" y="257.5" width="30" height="30" as="geometry" />
        </mxCell>
        <mxCell id="ZrPnzG4gwPI1K-78CBUd-18" value="&lt;span style=&quot;font-size: 14px&quot;&gt;容器组&lt;/span&gt;" style="rounded=0;whiteSpace=wrap;html=1;strokeColor=#006EAF;strokeWidth=2;fillColor=#1ba1e2;fontColor=#ffffff;" parent="1" vertex="1">
          <mxGeometry x="275" y="257.5" width="50" height="30" as="geometry" />
        </mxCell>
        <mxCell id="ZrPnzG4gwPI1K-78CBUd-19" value="&lt;span style=&quot;font-size: 14px&quot;&gt;健康检查&lt;/span&gt;" style="rounded=0;whiteSpace=wrap;html=1;strokeColor=#006EAF;strokeWidth=2;fillColor=#1ba1e2;fontColor=#ffffff;" parent="1" vertex="1">
          <mxGeometry x="325" y="257.5" width="70" height="30" as="geometry" />
        </mxCell>
        <mxCell id="ZrPnzG4gwPI1K-78CBUd-20" value="&lt;span style=&quot;font-size: 14px&quot;&gt;状态&lt;/span&gt;" style="rounded=0;whiteSpace=wrap;html=1;strokeColor=#006EAF;strokeWidth=2;fillColor=#1ba1e2;fontColor=#ffffff;" parent="1" vertex="1">
          <mxGeometry x="395" y="257.5" width="40" height="30" as="geometry" />
        </mxCell>
        <mxCell id="ZrPnzG4gwPI1K-78CBUd-21" value="&lt;span style=&quot;font-size: 14px&quot;&gt;&lt;b&gt;…&lt;/b&gt;&lt;/span&gt;" style="rounded=0;whiteSpace=wrap;html=1;strokeColor=#006EAF;strokeWidth=2;fillColor=#1ba1e2;fontColor=#ffffff;" parent="1" vertex="1">
          <mxGeometry x="435" y="257.5" width="30" height="30" as="geometry" />
        </mxCell>
        <mxCell id="ZrPnzG4gwPI1K-78CBUd-22" style="edgeStyle=orthogonalEdgeStyle;rounded=0;orthogonalLoop=1;jettySize=auto;html=1;strokeWidth=2;startArrow=classic;startFill=1;" parent="1" source="ZrPnzG4gwPI1K-78CBUd-24" target="ZrPnzG4gwPI1K-78CBUd-10" edge="1">
          <mxGeometry relative="1" as="geometry" />
        </mxCell>
        <mxCell id="ZrPnzG4gwPI1K-78CBUd-23" style="edgeStyle=orthogonalEdgeStyle;rounded=0;orthogonalLoop=1;jettySize=auto;html=1;entryX=0.5;entryY=0;entryDx=0;entryDy=0;startArrow=none;startFill=0;strokeWidth=2;exitX=0.576;exitY=1.017;exitDx=0;exitDy=0;exitPerimeter=0;" parent="1" source="ZrPnzG4gwPI1K-78CBUd-24" target="ZrPnzG4gwPI1K-78CBUd-31" edge="1">
          <mxGeometry relative="1" as="geometry">
            <Array as="points">
              <mxPoint x="491" y="430" />
              <mxPoint x="285" y="430" />
            </Array>
          </mxGeometry>
        </mxCell>
        <mxCell id="ZrPnzG4gwPI1K-78CBUd-24" value="&lt;font style=&quot;font-size: 14px&quot;&gt;边缘消息客户端&lt;/font&gt;" style="rounded=0;whiteSpace=wrap;html=1;strokeColor=#BD7000;strokeWidth=2;fillColor=#f0a30a;fontColor=#ffffff;" parent="1" vertex="1">
          <mxGeometry x="428" y="392.5" width="110" height="30" as="geometry" />
        </mxCell>
        <mxCell id="ZrPnzG4gwPI1K-78CBUd-25" style="edgeStyle=orthogonalEdgeStyle;rounded=0;orthogonalLoop=1;jettySize=auto;html=1;entryX=0;entryY=0.5;entryDx=0;entryDy=0;startArrow=classic;startFill=1;strokeWidth=2;" parent="1" source="ZrPnzG4gwPI1K-78CBUd-26" target="ZrPnzG4gwPI1K-78CBUd-24" edge="1">
          <mxGeometry relative="1" as="geometry" />
        </mxCell>
        <mxCell id="ZrPnzG4gwPI1K-78CBUd-26" value="&lt;font style=&quot;font-size: 14px&quot;&gt;元数据管理器&lt;/font&gt;" style="rounded=0;whiteSpace=wrap;html=1;strokeColor=#BD7000;strokeWidth=2;fillColor=#f0a30a;fontColor=#ffffff;" parent="1" vertex="1">
          <mxGeometry x="230" y="392.5" width="110" height="30" as="geometry" />
        </mxCell>
        <mxCell id="ZrPnzG4gwPI1K-78CBUd-27" style="edgeStyle=orthogonalEdgeStyle;rounded=0;orthogonalLoop=1;jettySize=auto;html=1;startArrow=none;startFill=0;strokeWidth=2;" parent="1" source="ZrPnzG4gwPI1K-78CBUd-29" target="ZrPnzG4gwPI1K-78CBUd-31" edge="1">
          <mxGeometry relative="1" as="geometry" />
        </mxCell>
        <mxCell id="ZrPnzG4gwPI1K-78CBUd-28" style="edgeStyle=orthogonalEdgeStyle;rounded=0;orthogonalLoop=1;jettySize=auto;html=1;endArrow=none;endFill=0;startArrow=classic;startFill=1;strokeWidth=2;" parent="1" source="ZrPnzG4gwPI1K-78CBUd-29" edge="1">
          <mxGeometry relative="1" as="geometry">
            <mxPoint x="690" y="440" as="targetPoint" />
          </mxGeometry>
        </mxCell>
        <mxCell id="ZrPnzG4gwPI1K-78CBUd-29" value="&lt;font style=&quot;font-size: 14px&quot;&gt;消息总线&lt;/font&gt;" style="rounded=0;whiteSpace=wrap;html=1;strokeColor=#BD7000;strokeWidth=2;fillColor=#f0a30a;fontColor=#ffffff;" parent="1" vertex="1">
          <mxGeometry x="428" y="447.5" width="110" height="30" as="geometry" />
        </mxCell>
        <mxCell id="ZrPnzG4gwPI1K-78CBUd-30" style="edgeStyle=orthogonalEdgeStyle;rounded=0;orthogonalLoop=1;jettySize=auto;html=1;entryX=1;entryY=0.7;entryDx=0;entryDy=0;startArrow=none;startFill=0;strokeWidth=2;" parent="1" source="ZrPnzG4gwPI1K-78CBUd-31" target="ZrPnzG4gwPI1K-78CBUd-108" edge="1">
          <mxGeometry relative="1" as="geometry" />
        </mxCell>
        <mxCell id="ZrPnzG4gwPI1K-78CBUd-31" value="&lt;font style=&quot;font-size: 14px&quot;&gt;设备管理器&lt;/font&gt;" style="rounded=0;whiteSpace=wrap;html=1;strokeColor=#BD7000;strokeWidth=2;fillColor=#f0a30a;fontColor=#ffffff;" parent="1" vertex="1">
          <mxGeometry x="230" y="447.5" width="110" height="30" as="geometry" />
        </mxCell>
        <mxCell id="ZrPnzG4gwPI1K-78CBUd-32" value="" style="group" parent="1" vertex="1" connectable="0">
          <mxGeometry x="607.5" y="323.5" width="153.5" height="140.5" as="geometry" />
        </mxCell>
        <mxCell id="ZrPnzG4gwPI1K-78CBUd-33" value="" style="rounded=0;whiteSpace=wrap;html=1;strokeWidth=2;dashed=1;strokeColor=#6F0000;fillColor=#FFFFFF;fontColor=#ffffff;" parent="ZrPnzG4gwPI1K-78CBUd-32" vertex="1">
          <mxGeometry width="138" height="87" as="geometry" />
        </mxCell>
        <mxCell id="ZrPnzG4gwPI1K-78CBUd-38" value="" style="outlineConnect=0;dashed=0;verticalLabelPosition=bottom;verticalAlign=top;align=center;html=1;shape=mxgraph.aws3.office_building;fillColor=#7D7C7C;gradientColor=none;strokeColor=#CCCC00;strokeWidth=2;" parent="ZrPnzG4gwPI1K-78CBUd-32" vertex="1">
          <mxGeometry x="109.58744394618839" y="12.903989181879695" width="19.32286995515695" height="49.13455037187289" as="geometry" />
        </mxCell>
        <mxCell id="ZrPnzG4gwPI1K-78CBUd-39" value="&lt;span style=&quot;font-size: 14px&quot;&gt;&lt;b&gt;智能机器人&lt;/b&gt;&lt;/span&gt;" style="rounded=1;whiteSpace=wrap;html=1;strokeColor=#6F0000;fillColor=#a20025;fontColor=#ffffff;" parent="ZrPnzG4gwPI1K-78CBUd-32" vertex="1">
          <mxGeometry x="18.5" y="70" width="100" height="30" as="geometry" />
        </mxCell>
        <mxCell id="ZrPnzG4gwPI1K-78CBUd-243" value="" style="shape=image;html=1;verticalAlign=top;verticalLabelPosition=bottom;labelBackgroundColor=#ffffff;imageAspect=0;aspect=fixed;image=https://cdn0.iconfinder.com/data/icons/star-wars/512/r2d2-128.png" parent="ZrPnzG4gwPI1K-78CBUd-32" vertex="1">
          <mxGeometry x="8.620000000000001" y="10" width="28.54" height="28.54" as="geometry" />
        </mxCell>
        <mxCell id="ZrPnzG4gwPI1K-78CBUd-245" value="" style="shape=image;html=1;verticalAlign=top;verticalLabelPosition=bottom;labelBackgroundColor=#ffffff;imageAspect=0;aspect=fixed;image=https://cdn0.iconfinder.com/data/icons/free-e-commerce-linear/1024/atm-machine-128.png" parent="ZrPnzG4gwPI1K-78CBUd-32" vertex="1">
          <mxGeometry x="12.89" y="42.04" width="20" height="20" as="geometry" />
        </mxCell>
        <mxCell id="ZrPnzG4gwPI1K-78CBUd-246" value="" style="shape=image;html=1;verticalAlign=top;verticalLabelPosition=bottom;labelBackgroundColor=#ffffff;imageAspect=0;aspect=fixed;image=https://cdn0.iconfinder.com/data/icons/star-wars/512/r2d2-128.png" parent="ZrPnzG4gwPI1K-78CBUd-32" vertex="1">
          <mxGeometry x="42.5" y="10" width="28.54" height="28.54" as="geometry" />
        </mxCell>
        <mxCell id="ZrPnzG4gwPI1K-78CBUd-247" value="" style="shape=image;html=1;verticalAlign=top;verticalLabelPosition=bottom;labelBackgroundColor=#ffffff;imageAspect=0;aspect=fixed;image=https://cdn0.iconfinder.com/data/icons/star-wars/512/r2d2-128.png" parent="ZrPnzG4gwPI1K-78CBUd-32" vertex="1">
          <mxGeometry x="78.04999999999995" y="10" width="28.54" height="28.54" as="geometry" />
        </mxCell>
        <mxCell id="ZrPnzG4gwPI1K-78CBUd-248" value="" style="shape=image;html=1;verticalAlign=top;verticalLabelPosition=bottom;labelBackgroundColor=#ffffff;imageAspect=0;aspect=fixed;image=https://cdn0.iconfinder.com/data/icons/free-e-commerce-linear/1024/atm-machine-128.png" parent="ZrPnzG4gwPI1K-78CBUd-32" vertex="1">
          <mxGeometry x="46.76999999999998" y="42.04000000000002" width="20" height="20" as="geometry" />
        </mxCell>
        <mxCell id="ZrPnzG4gwPI1K-78CBUd-249" value="" style="shape=image;html=1;verticalAlign=top;verticalLabelPosition=bottom;labelBackgroundColor=#ffffff;imageAspect=0;aspect=fixed;image=https://cdn0.iconfinder.com/data/icons/free-e-commerce-linear/1024/atm-machine-128.png" parent="ZrPnzG4gwPI1K-78CBUd-32" vertex="1">
          <mxGeometry x="82.31999999999994" y="42.04000000000002" width="20" height="20" as="geometry" />
        </mxCell>
        <mxCell id="ZrPnzG4gwPI1K-78CBUd-40" value="" style="group" parent="1" vertex="1" connectable="0">
          <mxGeometry x="609.5" y="99" width="137" height="105" as="geometry" />
        </mxCell>
        <mxCell id="ZrPnzG4gwPI1K-78CBUd-41" value="" style="rounded=0;whiteSpace=wrap;html=1;strokeWidth=2;dashed=1;strokeColor=#00AA00;" parent="ZrPnzG4gwPI1K-78CBUd-40" vertex="1">
          <mxGeometry width="137" height="90" as="geometry" />
        </mxCell>
        <mxCell id="ZrPnzG4gwPI1K-78CBUd-42" value="" style="shape=image;html=1;verticalAlign=top;verticalLabelPosition=bottom;labelBackgroundColor=#ffffff;imageAspect=0;aspect=fixed;image=https://cdn3.iconfinder.com/data/icons/security-flat-2-1/512/home__house__key_-128.png;dashed=1;strokeColor=#00AA00;strokeWidth=2;fillColor=#00AA00;" parent="ZrPnzG4gwPI1K-78CBUd-40" vertex="1">
          <mxGeometry x="75.91479820627808" y="25.32521974306968" width="23.22899850523169" height="23.22899850523169" as="geometry" />
        </mxCell>
        <mxCell id="ZrPnzG4gwPI1K-78CBUd-43" value="" style="shape=image;html=1;verticalAlign=top;verticalLabelPosition=bottom;labelBackgroundColor=#ffffff;imageAspect=0;aspect=fixed;image=https://cdn3.iconfinder.com/data/icons/security-flat-2-1/512/home__house__key_-128.png;dashed=1;strokeColor=#00AA00;strokeWidth=2;fillColor=#00AA00;" parent="ZrPnzG4gwPI1K-78CBUd-40" vertex="1">
          <mxGeometry x="106.45739910313898" y="7.939148073022324" width="23.22899850523169" height="23.22899850523169" as="geometry" />
        </mxCell>
        <mxCell id="ZrPnzG4gwPI1K-78CBUd-44" value="" style="shape=image;html=1;verticalAlign=top;verticalLabelPosition=bottom;labelBackgroundColor=#ffffff;imageAspect=0;aspect=fixed;image=https://cdn3.iconfinder.com/data/icons/security-flat-2-1/512/home__house__key_-128.png;dashed=1;strokeColor=#00AA00;strokeWidth=2;fillColor=#00AA00;" parent="ZrPnzG4gwPI1K-78CBUd-40" vertex="1">
          <mxGeometry x="106.45739910313898" y="45.35699797160245" width="23.22899850523169" height="23.22899850523169" as="geometry" />
        </mxCell>
        <mxCell id="ZrPnzG4gwPI1K-78CBUd-45" value="" style="shape=image;html=1;verticalAlign=top;verticalLabelPosition=bottom;labelBackgroundColor=#ffffff;imageAspect=0;aspect=fixed;image=https://cdn0.iconfinder.com/data/icons/internet-line/512/Internet_Line-18-128.png;dashed=1;strokeColor=#007FFF;strokeWidth=2;fillColor=#007FFF;" parent="ZrPnzG4gwPI1K-78CBUd-40" vertex="1">
          <mxGeometry x="42.25560538116588" y="3.781609195402325" width="33.009629454802926" height="33.009629454802926" as="geometry" />
        </mxCell>
        <mxCell id="ZrPnzG4gwPI1K-78CBUd-46" value="" style="verticalLabelPosition=bottom;html=1;verticalAlign=top;align=center;strokeColor=none;fillColor=#00BEF2;shape=mxgraph.azure.mobile;dashed=1;" parent="ZrPnzG4gwPI1K-78CBUd-40" vertex="1">
          <mxGeometry x="8.284753363228674" y="10.584854631507795" width="18.699551569506728" height="37.79580797836376" as="geometry" />
        </mxCell>
        <mxCell id="ZrPnzG4gwPI1K-78CBUd-47" value="" style="shape=image;html=1;verticalAlign=top;verticalLabelPosition=bottom;labelBackgroundColor=#ffffff;imageAspect=0;aspect=fixed;image=https://cdn1.iconfinder.com/data/icons/amenities-outline-ii/48/_computer-128.png;dashed=1;strokeColor=#00AA00;strokeWidth=2;fillColor=#00AA00;" parent="ZrPnzG4gwPI1K-78CBUd-40" vertex="1">
          <mxGeometry x="36.95739910313898" y="44.601081812035176" width="28.73060341436551" height="28.73060341436551" as="geometry" />
        </mxCell>
        <mxCell id="ZrPnzG4gwPI1K-78CBUd-48" value="&lt;font style=&quot;font-size: 14px&quot; color=&quot;#ffffff&quot;&gt;&lt;b&gt;外部交互设施&lt;/b&gt;&lt;/font&gt;" style="rounded=1;whiteSpace=wrap;html=1;strokeColor=#00CC00;fillColor=#00AA00;" parent="ZrPnzG4gwPI1K-78CBUd-40" vertex="1">
          <mxGeometry x="21" y="75" width="98" height="30" as="geometry" />
        </mxCell>
        <mxCell id="ZrPnzG4gwPI1K-78CBUd-49" value="" style="group" parent="1" vertex="1" connectable="0">
          <mxGeometry x="607.5" y="212.5" width="137.9534812367241" height="100" as="geometry" />
        </mxCell>
        <mxCell id="ZrPnzG4gwPI1K-78CBUd-50" value="" style="rounded=0;whiteSpace=wrap;html=1;strokeWidth=2;dashed=1;strokeColor=#007FFF;" parent="ZrPnzG4gwPI1K-78CBUd-49" vertex="1">
          <mxGeometry width="137" height="85" as="geometry" />
        </mxCell>
        <mxCell id="ZrPnzG4gwPI1K-78CBUd-51" value="" style="aspect=fixed;html=1;perimeter=none;align=center;shadow=0;dashed=0;image;fontSize=12;image=img/lib/mscae/Mobile_Engagement.svg;" parent="ZrPnzG4gwPI1K-78CBUd-49" vertex="1">
          <mxGeometry x="37.399103139013505" y="34.020283975659254" width="21.089485485012982" height="30.564471717410118" as="geometry" />
        </mxCell>
        <mxCell id="ZrPnzG4gwPI1K-78CBUd-52" value="" style="aspect=fixed;html=1;perimeter=none;align=center;shadow=0;dashed=0;image;fontSize=12;image=img/lib/mscae/Mobile_Engagement.svg;" parent="ZrPnzG4gwPI1K-78CBUd-49" vertex="1">
          <mxGeometry x="6.233183856502251" y="7.56321839080465" width="21.089485485012982" height="30.564471717410118" as="geometry" />
        </mxCell>
        <mxCell id="ZrPnzG4gwPI1K-78CBUd-53" value="" style="shape=image;html=1;verticalAlign=top;verticalLabelPosition=bottom;labelBackgroundColor=#ffffff;imageAspect=0;aspect=fixed;image=https://cdn0.iconfinder.com/data/icons/internet-line/512/Internet_Line-18-128.png;dashed=1;strokeColor=#007FFF;strokeWidth=2;fillColor=#007FFF;" parent="ZrPnzG4gwPI1K-78CBUd-49" vertex="1">
          <mxGeometry x="59.215246636771326" y="6.051386071670095" width="33.009629454802926" height="33.009629454802926" as="geometry" />
        </mxCell>
        <mxCell id="ZrPnzG4gwPI1K-78CBUd-54" value="" style="shape=image;html=1;verticalAlign=top;verticalLabelPosition=bottom;labelBackgroundColor=#ffffff;imageAspect=0;aspect=fixed;image=https://cdn4.iconfinder.com/data/icons/business-finance-vol-12-2/512/17-128.png;dashed=1;strokeColor=#007FFF;strokeWidth=2;fillColor=#007FFF;" parent="ZrPnzG4gwPI1K-78CBUd-49" vertex="1">
          <mxGeometry x="84.77130044843045" y="7.56321839080465" width="53.18218078829361" height="53.18218078829361" as="geometry" />
        </mxCell>
        <mxCell id="ZrPnzG4gwPI1K-78CBUd-55" value="" style="shape=image;html=1;verticalAlign=top;verticalLabelPosition=bottom;labelBackgroundColor=#ffffff;imageAspect=0;aspect=fixed;image=https://cdn0.iconfinder.com/data/icons/social-media-2183/512/social__media__social_media__wifi_-128.png;dashed=1;strokeColor=#007FFF;strokeWidth=2;fillColor=#007FFF;rotation=45;" parent="ZrPnzG4gwPI1K-78CBUd-49" vertex="1">
          <mxGeometry x="59.215246636771326" y="39.84719405003386" width="14.059656990008655" height="14.059656990008655" as="geometry" />
        </mxCell>
        <mxCell id="ZrPnzG4gwPI1K-78CBUd-56" value="" style="shape=image;html=1;verticalAlign=top;verticalLabelPosition=bottom;labelBackgroundColor=#ffffff;imageAspect=0;aspect=fixed;image=https://cdn0.iconfinder.com/data/icons/social-media-2183/512/social__media__social_media__wifi_-128.png;dashed=1;strokeColor=#007FFF;strokeWidth=2;fillColor=#007FFF;rotation=45;imageBackground=none;" parent="ZrPnzG4gwPI1K-78CBUd-49" vertex="1">
          <mxGeometry x="28.984304932735427" y="8.366463826910092" width="14.059656990008655" height="14.059656990008655" as="geometry" />
        </mxCell>
        <mxCell id="ZrPnzG4gwPI1K-78CBUd-57" value="&lt;font color=&quot;#ffffff&quot;&gt;&lt;span style=&quot;font-size: 14px&quot;&gt;&lt;b&gt;物联网智能设备&lt;/b&gt;&lt;/span&gt;&lt;/font&gt;" style="rounded=1;whiteSpace=wrap;html=1;strokeColor=#007FFF;fillColor=#007FFF;" parent="ZrPnzG4gwPI1K-78CBUd-49" vertex="1">
          <mxGeometry x="21" y="70" width="99" height="30" as="geometry" />
        </mxCell>
        <mxCell id="ZrPnzG4gwPI1K-78CBUd-58" value="" style="group" parent="1" vertex="1" connectable="0">
          <mxGeometry x="608.5" y="-22.5" width="136" height="110" as="geometry" />
        </mxCell>
        <mxCell id="ZrPnzG4gwPI1K-78CBUd-59" value="" style="rounded=0;whiteSpace=wrap;html=1;strokeWidth=2;dashed=1;strokeColor=#3700CC;fillColor=#FFFFFF;fontColor=#ffffff;" parent="ZrPnzG4gwPI1K-78CBUd-58" vertex="1">
          <mxGeometry width="136" height="97" as="geometry" />
        </mxCell>
        <mxCell id="ZrPnzG4gwPI1K-78CBUd-60" value="" style="shape=image;html=1;verticalAlign=top;verticalLabelPosition=bottom;labelBackgroundColor=#ffffff;imageAspect=0;aspect=fixed;image=https://cdn2.iconfinder.com/data/icons/maki/100/commerical-building-128.png;dashed=1;strokeColor=#CCCC00;strokeWidth=2;fillColor=#FFFFFF;" parent="ZrPnzG4gwPI1K-78CBUd-58" vertex="1">
          <mxGeometry x="50.04708520179372" y="4" width="48.29186531350799" height="48.29186531350799" as="geometry" />
        </mxCell>
        <mxCell id="ZrPnzG4gwPI1K-78CBUd-61" value="" style="shape=image;html=1;verticalAlign=top;verticalLabelPosition=bottom;labelBackgroundColor=#ffffff;imageAspect=0;aspect=fixed;image=https://cdn2.iconfinder.com/data/icons/maki/100/commerical-building-128.png;dashed=1;strokeColor=#CCCC00;strokeWidth=2;fillColor=#FFFFFF;" parent="ZrPnzG4gwPI1K-78CBUd-58" vertex="1">
          <mxGeometry x="86.51121076233187" y="4" width="48.29186531350799" height="48.29186531350799" as="geometry" />
        </mxCell>
        <mxCell id="ZrPnzG4gwPI1K-78CBUd-62" value="" style="rounded=0;whiteSpace=wrap;html=1;strokeWidth=2;strokeColor=#3700CC;fillColor=#FFFFFF;fontColor=#ffffff;" parent="ZrPnzG4gwPI1K-78CBUd-58" vertex="1">
          <mxGeometry x="57.83856502242156" y="56.31575388776201" width="69.81165919282512" height="22.67748478701826" as="geometry" />
        </mxCell>
        <mxCell id="ZrPnzG4gwPI1K-78CBUd-63" value="" style="rounded=0;whiteSpace=wrap;html=1;strokeWidth=2;strokeColor=#3700CC;fillColor=#FFFFFF;fontColor=#ffffff;" parent="ZrPnzG4gwPI1K-78CBUd-58" vertex="1">
          <mxGeometry x="11.089686098654738" y="7.181203515889116" width="24.932735426008968" height="61.2292089249493" as="geometry" />
        </mxCell>
        <mxCell id="ZrPnzG4gwPI1K-78CBUd-64" value="" style="strokeColor=#666666;html=1;labelPosition=right;align=left;spacingLeft=15;shadow=0;dashed=0;fillColor=#ffffff;outlineConnect=0;shape=mxgraph.rack.general.cat5e_rack_mount_patch_panel_96_ports;" parent="ZrPnzG4gwPI1K-78CBUd-58" vertex="1">
          <mxGeometry x="62.82511210762334" y="58.96146044624747" width="24.932735426008968" height="15.87423935091278" as="geometry" />
        </mxCell>
        <mxCell id="ZrPnzG4gwPI1K-78CBUd-65" value="" style="strokeColor=#666666;html=1;labelPosition=right;align=left;spacingLeft=15;shadow=0;dashed=0;fillColor=#ffffff;outlineConnect=0;shape=mxgraph.rack.general.cat5e_rack_mount_patch_panel_96_ports;" parent="ZrPnzG4gwPI1K-78CBUd-58" vertex="1">
          <mxGeometry x="98.97757847533637" y="58.96146044624747" width="24.932735426008968" height="15.87423935091278" as="geometry" />
        </mxCell>
        <mxCell id="ZrPnzG4gwPI1K-78CBUd-66" value="" style="fontColor=#0066CC;verticalAlign=top;verticalLabelPosition=bottom;labelPosition=center;align=center;html=1;outlineConnect=0;fillColor=#CCCCCC;strokeColor=#6881B3;gradientColor=none;gradientDirection=north;strokeWidth=2;shape=mxgraph.networks.monitor;" parent="ZrPnzG4gwPI1K-78CBUd-58" vertex="1">
          <mxGeometry x="14.206278026905807" y="14.740365111561868" width="18.699551569506728" height="23.433400946585532" as="geometry" />
        </mxCell>
        <mxCell id="ZrPnzG4gwPI1K-78CBUd-67" value="" style="shadow=0;dashed=0;html=1;strokeColor=none;fillColor=#4495D1;labelPosition=center;verticalLabelPosition=bottom;verticalAlign=top;align=center;outlineConnect=0;shape=mxgraph.veeam.laptop;" parent="ZrPnzG4gwPI1K-78CBUd-58" vertex="1">
          <mxGeometry x="9.843049327354265" y="43.84313725490197" width="24.932735426008968" height="18.89790398918188" as="geometry" />
        </mxCell>
        <mxCell id="ZrPnzG4gwPI1K-78CBUd-68" value="" style="endArrow=classic;startArrow=classic;html=1;exitX=0.303;exitY=0.343;exitDx=0;exitDy=0;exitPerimeter=0;strokeWidth=2;fillColor=#6a00ff;strokeColor=#3700CC;" parent="ZrPnzG4gwPI1K-78CBUd-58" edge="1">
          <mxGeometry width="50" height="50" relative="1" as="geometry">
            <mxPoint x="41" y="37" as="sourcePoint" />
            <mxPoint x="54.72197309417038" y="67.65449628127114" as="targetPoint" />
          </mxGeometry>
        </mxCell>
        <mxCell id="ZrPnzG4gwPI1K-78CBUd-69" value="&lt;font style=&quot;font-size: 14px&quot;&gt;&lt;b&gt;仓库固定设施&lt;/b&gt;&lt;/font&gt;" style="rounded=1;whiteSpace=wrap;html=1;strokeColor=#3700CC;fillColor=#6a00ff;fontColor=#ffffff;" parent="ZrPnzG4gwPI1K-78CBUd-58" vertex="1">
          <mxGeometry x="17.5" y="83" width="103" height="27" as="geometry" />
        </mxCell>
        <mxCell id="ZrPnzG4gwPI1K-78CBUd-70" value="&lt;span style=&quot;font-size: 16px&quot;&gt;物流仓储&lt;/span&gt;" style="rounded=0;whiteSpace=wrap;html=1;fillColor=none;strokeColor=none;" parent="1" vertex="1">
          <mxGeometry x="586.5" y="-65.5" width="80" height="38" as="geometry" />
        </mxCell>
        <mxCell id="ZrPnzG4gwPI1K-78CBUd-71" value="&lt;font style=&quot;font-size: 14px&quot;&gt;轻量级通信协议&lt;/font&gt;" style="rounded=0;whiteSpace=wrap;html=1;fillColor=none;strokeColor=none;" parent="1" vertex="1">
          <mxGeometry x="633" y="459" width="103" height="38" as="geometry" />
        </mxCell>
        <mxCell id="ZrPnzG4gwPI1K-78CBUd-72" style="edgeStyle=orthogonalEdgeStyle;rounded=0;orthogonalLoop=1;jettySize=auto;html=1;startArrow=classic;startFill=1;strokeWidth=2;" parent="1" source="ZrPnzG4gwPI1K-78CBUd-74" edge="1">
          <mxGeometry relative="1" as="geometry">
            <mxPoint x="480" y="172" as="targetPoint" />
          </mxGeometry>
        </mxCell>
        <mxCell id="ZrPnzG4gwPI1K-78CBUd-73" style="edgeStyle=orthogonalEdgeStyle;rounded=0;orthogonalLoop=1;jettySize=auto;html=1;exitX=0.5;exitY=0.05;exitDx=0;exitDy=0;exitPerimeter=0;entryX=0.5;entryY=1;entryDx=0;entryDy=0;startArrow=none;startFill=0;strokeWidth=2;" parent="1" edge="1">
          <mxGeometry relative="1" as="geometry">
            <mxPoint x="340" y="118" as="sourcePoint" />
            <mxPoint x="333" y="58" as="targetPoint" />
            <Array as="points">
              <mxPoint x="333" y="118" />
            </Array>
          </mxGeometry>
        </mxCell>
        <mxCell id="ZrPnzG4gwPI1K-78CBUd-74" value="" style="shadow=0;dashed=0;html=1;strokeColor=none;labelPosition=center;verticalLabelPosition=bottom;verticalAlign=top;align=center;shape=mxgraph.mscae.cloud.iot_edge;fillColor=#0079D6;" parent="1" vertex="1">
          <mxGeometry x="268" y="112" width="129" height="120" as="geometry" />
        </mxCell>
        <mxCell id="ZrPnzG4gwPI1K-78CBUd-75" value="&lt;font style=&quot;font-size: 14px&quot; color=&quot;#ffffff&quot;&gt;&lt;b&gt;知识图&lt;br&gt;谱引擎&lt;/b&gt;&lt;/font&gt;" style="rounded=0;whiteSpace=wrap;html=1;fillColor=none;strokeColor=none;" parent="1" vertex="1">
          <mxGeometry x="271" y="194" width="48" height="38" as="geometry" />
        </mxCell>
        <mxCell id="ZrPnzG4gwPI1K-78CBUd-76" value="" style="shape=cylinder;whiteSpace=wrap;html=1;boundedLbl=1;backgroundOutline=1;strokeColor=#000000;strokeWidth=2;fillColor=#E5CCFF;" parent="1" vertex="1">
          <mxGeometry x="-30" y="127" width="80" height="103" as="geometry" />
        </mxCell>
        <mxCell id="ZrPnzG4gwPI1K-78CBUd-77" style="edgeStyle=orthogonalEdgeStyle;rounded=0;orthogonalLoop=1;jettySize=auto;html=1;exitX=1;exitY=0.5;exitDx=0;exitDy=0;entryX=0.018;entryY=0.558;entryDx=0;entryDy=0;entryPerimeter=0;startArrow=classic;startFill=1;strokeWidth=2;" parent="1" source="ZrPnzG4gwPI1K-78CBUd-78" target="ZrPnzG4gwPI1K-78CBUd-74" edge="1">
          <mxGeometry relative="1" as="geometry" />
        </mxCell>
        <mxCell id="ZrPnzG4gwPI1K-78CBUd-78" value="" style="shape=cylinder;whiteSpace=wrap;html=1;boundedLbl=1;backgroundOutline=1;strokeColor=#000000;strokeWidth=2;fillColor=#E5CCFF;" parent="1" vertex="1">
          <mxGeometry x="50" y="127" width="80" height="104" as="geometry" />
        </mxCell>
        <mxCell id="ZrPnzG4gwPI1K-78CBUd-79" value="&lt;span style=&quot;font-size: 14px&quot;&gt;知识库&lt;/span&gt;" style="rounded=0;whiteSpace=wrap;html=1;fillColor=none;strokeColor=none;" parent="1" vertex="1">
          <mxGeometry x="1" y="222.5" width="91" height="38" as="geometry" />
        </mxCell>
        <mxCell id="ZrPnzG4gwPI1K-78CBUd-80" value="" style="ellipse;whiteSpace=wrap;html=1;aspect=fixed;strokeColor=#000000;strokeWidth=1;fillColor=#CCCCCC;" parent="1" vertex="1">
          <mxGeometry x="-6" y="173.5" width="11" height="11" as="geometry" />
        </mxCell>
        <mxCell id="ZrPnzG4gwPI1K-78CBUd-81" value="" style="ellipse;whiteSpace=wrap;html=1;aspect=fixed;strokeColor=#000000;strokeWidth=1;fillColor=#CCCCCC;" parent="1" vertex="1">
          <mxGeometry x="-12" y="204.5" width="6" height="6" as="geometry" />
        </mxCell>
        <mxCell id="ZrPnzG4gwPI1K-78CBUd-82" value="" style="ellipse;whiteSpace=wrap;html=1;strokeColor=#000000;strokeWidth=1;fillColor=#CCCCCC;" parent="1" vertex="1">
          <mxGeometry x="20" y="207" width="20" height="11" as="geometry" />
        </mxCell>
        <mxCell id="ZrPnzG4gwPI1K-78CBUd-83" value="" style="ellipse;whiteSpace=wrap;html=1;aspect=fixed;strokeColor=#000000;strokeWidth=1;fillColor=#CCCCCC;" parent="1" vertex="1">
          <mxGeometry x="29" y="176.5" width="8" height="8" as="geometry" />
        </mxCell>
        <mxCell id="ZrPnzG4gwPI1K-78CBUd-84" value="" style="ellipse;whiteSpace=wrap;html=1;strokeColor=#000000;strokeWidth=1;fillColor=#CCCCCC;rotation=-45;" parent="1" vertex="1">
          <mxGeometry x="38" y="182" width="36" height="11" as="geometry" />
        </mxCell>
        <mxCell id="ZrPnzG4gwPI1K-78CBUd-85" value="" style="ellipse;whiteSpace=wrap;html=1;aspect=fixed;strokeColor=#000000;strokeWidth=1;fillColor=#CCCCCC;" parent="1" vertex="1">
          <mxGeometry x="78" y="213.5" width="11" height="11" as="geometry" />
        </mxCell>
        <mxCell id="ZrPnzG4gwPI1K-78CBUd-86" value="" style="ellipse;whiteSpace=wrap;html=1;aspect=fixed;strokeColor=#000000;strokeWidth=1;fillColor=#CCCCCC;" parent="1" vertex="1">
          <mxGeometry x="14" y="193.5" width="11" height="11" as="geometry" />
        </mxCell>
        <mxCell id="ZrPnzG4gwPI1K-78CBUd-87" value="" style="ellipse;whiteSpace=wrap;html=1;aspect=fixed;strokeColor=#000000;strokeWidth=1;fillColor=#CCCCCC;" parent="1" vertex="1">
          <mxGeometry x="109" y="197" width="11" height="11" as="geometry" />
        </mxCell>
        <mxCell id="ZrPnzG4gwPI1K-78CBUd-88" value="" style="ellipse;whiteSpace=wrap;html=1;aspect=fixed;strokeColor=#000000;strokeWidth=1;fillColor=#CCCCCC;" parent="1" vertex="1">
          <mxGeometry x="76" y="182.5" width="11" height="11" as="geometry" />
        </mxCell>
        <mxCell id="ZrPnzG4gwPI1K-78CBUd-89" value="" style="ellipse;whiteSpace=wrap;html=1;aspect=fixed;strokeColor=#000000;strokeWidth=1;fillColor=#CCCCCC;" parent="1" vertex="1">
          <mxGeometry x="103.5" y="172.5" width="11" height="11" as="geometry" />
        </mxCell>
        <mxCell id="ZrPnzG4gwPI1K-78CBUd-90" value="" style="endArrow=none;html=1;strokeWidth=1;entryX=0.333;entryY=0.75;entryDx=0;entryDy=0;entryPerimeter=0;exitX=0.075;exitY=0.806;exitDx=0;exitDy=0;exitPerimeter=0;" parent="1" edge="1">
          <mxGeometry width="50" height="50" relative="1" as="geometry">
            <mxPoint x="-25" y="210" as="sourcePoint" />
            <mxPoint x="-11" y="209" as="targetPoint" />
          </mxGeometry>
        </mxCell>
        <mxCell id="ZrPnzG4gwPI1K-78CBUd-91" value="" style="endArrow=none;html=1;strokeWidth=1;entryX=0;entryY=1;entryDx=0;entryDy=0;exitX=1;exitY=1;exitDx=0;exitDy=0;" parent="1" source="ZrPnzG4gwPI1K-78CBUd-81" target="ZrPnzG4gwPI1K-78CBUd-82" edge="1">
          <mxGeometry width="50" height="50" relative="1" as="geometry">
            <mxPoint x="-14" y="220" as="sourcePoint" />
            <mxPoint y="219" as="targetPoint" />
          </mxGeometry>
        </mxCell>
        <mxCell id="ZrPnzG4gwPI1K-78CBUd-92" value="" style="endArrow=none;html=1;strokeWidth=1;entryX=1;entryY=0.5;entryDx=0;entryDy=0;exitX=0.375;exitY=0.592;exitDx=0;exitDy=0;exitPerimeter=0;" parent="1" edge="1">
          <mxGeometry width="50" height="50" relative="1" as="geometry">
            <mxPoint x="-2" y="185" as="sourcePoint" />
            <mxPoint x="-8" y="205" as="targetPoint" />
          </mxGeometry>
        </mxCell>
        <mxCell id="ZrPnzG4gwPI1K-78CBUd-93" value="" style="endArrow=none;html=1;strokeWidth=1;entryX=0;entryY=0;entryDx=0;entryDy=0;exitX=1;exitY=1;exitDx=0;exitDy=0;" parent="1" source="ZrPnzG4gwPI1K-78CBUd-86" target="ZrPnzG4gwPI1K-78CBUd-82" edge="1">
          <mxGeometry width="50" height="50" relative="1" as="geometry">
            <mxPoint x="8" y="195" as="sourcePoint" />
            <mxPoint x="2" y="215" as="targetPoint" />
          </mxGeometry>
        </mxCell>
        <mxCell id="ZrPnzG4gwPI1K-78CBUd-94" value="" style="endArrow=none;html=1;strokeWidth=1;entryX=1;entryY=0.5;entryDx=0;entryDy=0;exitX=0;exitY=0;exitDx=0;exitDy=0;" parent="1" source="ZrPnzG4gwPI1K-78CBUd-83" target="ZrPnzG4gwPI1K-78CBUd-80" edge="1">
          <mxGeometry width="50" height="50" relative="1" as="geometry">
            <mxPoint x="8" y="195" as="sourcePoint" />
            <mxPoint x="2" y="215" as="targetPoint" />
          </mxGeometry>
        </mxCell>
        <mxCell id="ZrPnzG4gwPI1K-78CBUd-95" value="" style="endArrow=none;html=1;strokeWidth=1;exitX=0.625;exitY=1.188;exitDx=0;exitDy=0;exitPerimeter=0;" parent="1" edge="1">
          <mxGeometry width="50" height="50" relative="1" as="geometry">
            <mxPoint x="32" y="183" as="sourcePoint" />
            <mxPoint x="23" y="196" as="targetPoint" />
          </mxGeometry>
        </mxCell>
        <mxCell id="ZrPnzG4gwPI1K-78CBUd-96" value="" style="endArrow=none;html=1;strokeWidth=1;entryX=1;entryY=1;entryDx=0;entryDy=0;exitX=0;exitY=0;exitDx=0;exitDy=0;" parent="1" source="ZrPnzG4gwPI1K-78CBUd-86" target="ZrPnzG4gwPI1K-78CBUd-80" edge="1">
          <mxGeometry width="50" height="50" relative="1" as="geometry">
            <mxPoint x="40" y="188" as="sourcePoint" />
            <mxPoint x="15" y="189" as="targetPoint" />
          </mxGeometry>
        </mxCell>
        <mxCell id="ZrPnzG4gwPI1K-78CBUd-97" value="" style="endArrow=none;html=1;strokeWidth=1;entryX=0.333;entryY=0.75;entryDx=0;entryDy=0;entryPerimeter=0;" parent="1" edge="1">
          <mxGeometry width="50" height="50" relative="1" as="geometry">
            <mxPoint x="-19" y="170" as="sourcePoint" />
            <mxPoint x="-5" y="178" as="targetPoint" />
          </mxGeometry>
        </mxCell>
        <mxCell id="ZrPnzG4gwPI1K-78CBUd-98" value="" style="endArrow=none;html=1;strokeWidth=1;exitX=0.5;exitY=0;exitDx=0;exitDy=0;" parent="1" source="ZrPnzG4gwPI1K-78CBUd-84" edge="1">
          <mxGeometry width="50" height="50" relative="1" as="geometry">
            <mxPoint x="40" y="188" as="sourcePoint" />
            <mxPoint x="36" y="182" as="targetPoint" />
          </mxGeometry>
        </mxCell>
        <mxCell id="ZrPnzG4gwPI1K-78CBUd-99" value="" style="endArrow=none;html=1;strokeWidth=1;entryX=0.125;entryY=0.644;entryDx=0;entryDy=0;entryPerimeter=0;" parent="1" edge="1">
          <mxGeometry width="50" height="50" relative="1" as="geometry">
            <mxPoint x="80" y="216" as="sourcePoint" />
            <mxPoint x="59" y="193" as="targetPoint" />
          </mxGeometry>
        </mxCell>
        <mxCell id="ZrPnzG4gwPI1K-78CBUd-100" value="" style="endArrow=none;html=1;strokeWidth=1;exitX=0.738;exitY=0.769;exitDx=0;exitDy=0;exitPerimeter=0;entryX=0.967;entryY=-0.092;entryDx=0;entryDy=0;entryPerimeter=0;" parent="1" edge="1">
          <mxGeometry width="50" height="50" relative="1" as="geometry">
            <mxPoint x="110" y="206" as="sourcePoint" />
            <mxPoint x="90" y="218" as="targetPoint" />
          </mxGeometry>
        </mxCell>
        <mxCell id="ZrPnzG4gwPI1K-78CBUd-101" value="" style="endArrow=none;html=1;strokeWidth=1;entryX=1;entryY=0;entryDx=0;entryDy=0;exitX=0.913;exitY=0.606;exitDx=0;exitDy=0;exitPerimeter=0;" parent="1" source="ZrPnzG4gwPI1K-78CBUd-78" target="ZrPnzG4gwPI1K-78CBUd-87" edge="1">
          <mxGeometry width="50" height="50" relative="1" as="geometry">
            <mxPoint x="-9" y="180" as="sourcePoint" />
            <mxPoint x="5" y="188" as="targetPoint" />
          </mxGeometry>
        </mxCell>
        <mxCell id="ZrPnzG4gwPI1K-78CBUd-102" value="" style="endArrow=none;html=1;strokeWidth=1;exitX=0.752;exitY=0.918;exitDx=0;exitDy=0;exitPerimeter=0;entryX=0;entryY=0;entryDx=0;entryDy=0;" parent="1" source="ZrPnzG4gwPI1K-78CBUd-84" target="ZrPnzG4gwPI1K-78CBUd-88" edge="1">
          <mxGeometry width="50" height="50" relative="1" as="geometry">
            <mxPoint x="70" y="340" as="sourcePoint" />
            <mxPoint x="120" y="290" as="targetPoint" />
          </mxGeometry>
        </mxCell>
        <mxCell id="ZrPnzG4gwPI1K-78CBUd-103" value="" style="endArrow=none;html=1;strokeWidth=1;exitX=1;exitY=0.5;exitDx=0;exitDy=0;" parent="1" source="ZrPnzG4gwPI1K-78CBUd-88" edge="1">
          <mxGeometry width="50" height="50" relative="1" as="geometry">
            <mxPoint x="50" y="370" as="sourcePoint" />
            <mxPoint x="104" y="180" as="targetPoint" />
          </mxGeometry>
        </mxCell>
        <mxCell id="ZrPnzG4gwPI1K-78CBUd-104" value="" style="endArrow=none;html=1;strokeWidth=1;entryX=0.318;entryY=0.955;entryDx=0;entryDy=0;entryPerimeter=0;exitX=0.45;exitY=0.837;exitDx=0;exitDy=0;exitPerimeter=0;" parent="1" source="ZrPnzG4gwPI1K-78CBUd-78" target="ZrPnzG4gwPI1K-78CBUd-89" edge="1">
          <mxGeometry width="50" height="50" relative="1" as="geometry">
            <mxPoint x="30" y="360" as="sourcePoint" />
            <mxPoint x="80" y="310" as="targetPoint" />
          </mxGeometry>
        </mxCell>
        <mxCell id="ZrPnzG4gwPI1K-78CBUd-105" value="" style="endArrow=none;html=1;strokeWidth=1;entryX=0.9;entryY=0.394;entryDx=0;entryDy=0;exitX=1;exitY=0;exitDx=0;exitDy=0;entryPerimeter=0;" parent="1" source="ZrPnzG4gwPI1K-78CBUd-89" target="ZrPnzG4gwPI1K-78CBUd-78" edge="1">
          <mxGeometry width="50" height="50" relative="1" as="geometry">
            <mxPoint x="133" y="200" as="sourcePoint" />
            <mxPoint x="128" y="209" as="targetPoint" />
          </mxGeometry>
        </mxCell>
        <mxCell id="ZrPnzG4gwPI1K-78CBUd-106" style="edgeStyle=orthogonalEdgeStyle;rounded=0;orthogonalLoop=1;jettySize=auto;html=1;startArrow=classic;startFill=1;endArrow=classic;endFill=1;strokeWidth=2;" parent="1" source="ZrPnzG4gwPI1K-78CBUd-107" edge="1">
          <mxGeometry relative="1" as="geometry">
            <mxPoint x="330" y="20" as="targetPoint" />
            <Array as="points">
              <mxPoint x="330" />
              <mxPoint x="330" />
            </Array>
          </mxGeometry>
        </mxCell>
        <mxCell id="ZrPnzG4gwPI1K-78CBUd-107" value="&lt;font style=&quot;font-size: 14px&quot;&gt;&lt;b&gt;物流中心-服务器集群&lt;/b&gt;&lt;/font&gt;" style="ellipse;shape=cloud;whiteSpace=wrap;html=1;strokeColor=#000000;strokeWidth=1;fillColor=#CCCCCC;" parent="1" vertex="1">
          <mxGeometry x="170" y="-55" width="380" height="42" as="geometry" />
        </mxCell>
        <mxCell id="ZrPnzG4gwPI1K-78CBUd-108" value="" style="shape=cylinder;whiteSpace=wrap;html=1;boundedLbl=1;backgroundOutline=1;strokeColor=#000000;strokeWidth=2;fillColor=#FFB570;" parent="1" vertex="1">
          <mxGeometry x="10" y="390.5" width="80" height="103" as="geometry" />
        </mxCell>
        <mxCell id="ZrPnzG4gwPI1K-78CBUd-109" value="&lt;span style=&quot;font-size: 14px&quot;&gt;数据存储&lt;/span&gt;" style="rounded=0;whiteSpace=wrap;html=1;fillColor=none;strokeColor=none;" parent="1" vertex="1">
          <mxGeometry x="8" y="485.5" width="91" height="38" as="geometry" />
        </mxCell>
        <mxCell id="ZrPnzG4gwPI1K-78CBUd-110" value="&lt;span style=&quot;font-size: 14px&quot;&gt;对象配置&lt;/span&gt;" style="rounded=0;whiteSpace=wrap;html=1;fillColor=none;strokeColor=none;" parent="1" vertex="1">
          <mxGeometry x="87" y="377" width="72" height="38" as="geometry" />
        </mxCell>
        <mxCell id="ZrPnzG4gwPI1K-78CBUd-111" value="&lt;span style=&quot;font-size: 14px&quot;&gt;设备状态&lt;/span&gt;" style="rounded=0;whiteSpace=wrap;html=1;fillColor=none;strokeColor=none;direction=west;" parent="1" vertex="1">
          <mxGeometry x="87" y="428.5" width="72" height="38" as="geometry" />
        </mxCell>
        <mxCell id="ZrPnzG4gwPI1K-78CBUd-117" style="edgeStyle=orthogonalEdgeStyle;rounded=0;orthogonalLoop=1;jettySize=auto;html=1;entryX=0.07;entryY=0.4;entryDx=0;entryDy=0;entryPerimeter=0;startArrow=classic;startFill=1;endArrow=none;endFill=0;strokeWidth=2;" parent="1" source="ZrPnzG4gwPI1K-78CBUd-118" target="ZrPnzG4gwPI1K-78CBUd-107" edge="1">
          <mxGeometry relative="1" as="geometry">
            <Array as="points">
              <mxPoint x="140" y="6" />
              <mxPoint x="140" y="-39" />
            </Array>
          </mxGeometry>
        </mxCell>
        <mxCell id="ZrPnzG4gwPI1K-78CBUd-118" value="" style="shape=curlyBracket;whiteSpace=wrap;html=1;rounded=1;strokeColor=#000000;strokeWidth=2;fillColor=#FFFFCC;direction=west;" parent="1" vertex="1">
          <mxGeometry x="96.5" y="-54.5" width="20" height="120" as="geometry" />
        </mxCell>
        <mxCell id="ZrPnzG4gwPI1K-78CBUd-250" value="" style="edgeStyle=orthogonalEdgeStyle;rounded=0;orthogonalLoop=1;jettySize=auto;html=1;" parent="1" source="ZrPnzG4gwPI1K-78CBUd-119" target="ZrPnzG4gwPI1K-78CBUd-120" edge="1">
          <mxGeometry relative="1" as="geometry" />
        </mxCell>
        <mxCell id="ZrPnzG4gwPI1K-78CBUd-119" value="&lt;font style=&quot;font-size: 14px&quot;&gt;人工控制&lt;/font&gt;" style="shape=image;html=1;verticalAlign=top;verticalLabelPosition=bottom;labelBackgroundColor=#ffffff;imageAspect=0;aspect=fixed;image=https://cdn0.iconfinder.com/data/icons/small-n-flat/24/678109-profile-group-128.png;strokeColor=#FFFFFF;strokeWidth=2;fillColor=none;" parent="1" vertex="1">
          <mxGeometry x="39" y="-73" width="57" height="57" as="geometry" />
        </mxCell>
        <mxCell id="ZrPnzG4gwPI1K-78CBUd-120" value="&lt;span style=&quot;font-size: 14px&quot;&gt;无人设备&lt;/span&gt;" style="shadow=0;dashed=0;html=1;strokeColor=none;labelPosition=center;verticalLabelPosition=bottom;verticalAlign=top;align=center;shape=mxgraph.mscae.cloud.iot;fillColor=#0079D6;" parent="1" vertex="1">
          <mxGeometry x="44" y="20" width="50" height="50" as="geometry" />
        </mxCell>
        <mxCell id="ZrPnzG4gwPI1K-78CBUd-121" style="edgeStyle=orthogonalEdgeStyle;rounded=0;orthogonalLoop=1;jettySize=auto;html=1;entryX=1;entryY=0.7;entryDx=0;entryDy=0;startArrow=none;startFill=0;strokeWidth=2;" parent="1" edge="1">
          <mxGeometry relative="1" as="geometry">
            <mxPoint x="231" y="410.52941176470586" as="sourcePoint" />
            <mxPoint x="90.52941176470586" y="410.52941176470586" as="targetPoint" />
          </mxGeometry>
        </mxCell>
      </root>
    </mxGraphModel>
  </diagram>
  <diagram id="BcQCYOnj26xcvK1QRzGk" name="第 2 页">
    
    <mxGraphModel dx="1008" dy="493" grid="1" gridSize="10" guides="1" tooltips="1" connect="1" arrows="1" fold="1" page="1" pageScale="1" pageWidth="827" pageHeight="1169" math="0" shadow="0">
      
      <root>
        
        <mxCell id="FvDFjdR7gVoKa_HivH6m-0" />
        
        <mxCell id="FvDFjdR7gVoKa_HivH6m-1" parent="FvDFjdR7gVoKa_HivH6m-0" />
        
        <mxCell id="FvDFjdR7gVoKa_HivH6m-2" value="物流仓库核心业务（90%）" style="rounded=0;whiteSpace=wrap;html=1;fontSize=16;fillColor=#F8CECC;" parent="FvDFjdR7gVoKa_HivH6m-1" vertex="1">
          
          <mxGeometry x="150" y="120" width="130" height="60" as="geometry" />
          
        </mxCell>
        
        <mxCell id="FvDFjdR7gVoKa_HivH6m-3" value="物流仓库支撑业务（10%）" style="rounded=0;whiteSpace=wrap;html=1;fontSize=16;" parent="FvDFjdR7gVoKa_HivH6m-1" vertex="1">
          
          <mxGeometry x="440" y="120" width="130" height="60" as="geometry" />
          
        </mxCell>
        
        <mxCell id="FvDFjdR7gVoKa_HivH6m-4" value="物流仓储进程事件管理中心" style="rounded=0;whiteSpace=wrap;html=1;fontSize=16;fillColor=#F8CECC;" parent="FvDFjdR7gVoKa_HivH6m-1" vertex="1">
          
          <mxGeometry x="150" y="210" width="130" height="60" as="geometry" />
          
        </mxCell>
        
        <mxCell id="FvDFjdR7gVoKa_HivH6m-5" value="业务RMI事件管理中心" style="rounded=0;whiteSpace=wrap;html=1;fontSize=16;" parent="FvDFjdR7gVoKa_HivH6m-1" vertex="1">
          
          <mxGeometry x="440" y="210" width="130" height="60" as="geometry" />
          
        </mxCell>
        
        <mxCell id="FvDFjdR7gVoKa_HivH6m-6" style="edgeStyle=orthogonalEdgeStyle;rounded=0;orthogonalLoop=1;jettySize=auto;html=1;entryX=0.5;entryY=0;entryDx=0;entryDy=0;exitX=0;exitY=0.5;exitDx=0;exitDy=0;" parent="FvDFjdR7gVoKa_HivH6m-1" source="FvDFjdR7gVoKa_HivH6m-10" target="FvDFjdR7gVoKa_HivH6m-11" edge="1">
          
          <mxGeometry relative="1" as="geometry" />
          
        </mxCell>
        
        <mxCell id="FvDFjdR7gVoKa_HivH6m-7" style="edgeStyle=orthogonalEdgeStyle;rounded=0;orthogonalLoop=1;jettySize=auto;html=1;entryX=0.5;entryY=0;entryDx=0;entryDy=0;exitX=1;exitY=0.5;exitDx=0;exitDy=0;" parent="FvDFjdR7gVoKa_HivH6m-1" source="FvDFjdR7gVoKa_HivH6m-10" target="FvDFjdR7gVoKa_HivH6m-12" edge="1">
          
          <mxGeometry relative="1" as="geometry" />
          
        </mxCell>
        
        <mxCell id="FvDFjdR7gVoKa_HivH6m-8" style="edgeStyle=orthogonalEdgeStyle;rounded=0;orthogonalLoop=1;jettySize=auto;html=1;entryX=0.5;entryY=1;entryDx=0;entryDy=0;" parent="FvDFjdR7gVoKa_HivH6m-1" source="FvDFjdR7gVoKa_HivH6m-10" target="FvDFjdR7gVoKa_HivH6m-5" edge="1">
          
          <mxGeometry relative="1" as="geometry">
            
            <Array as="points">
              
              <mxPoint x="366" y="290" />
              
              <mxPoint x="505" y="290" />
              
            </Array>
            
          </mxGeometry>
          
        </mxCell>
        
        <mxCell id="FvDFjdR7gVoKa_HivH6m-9" style="edgeStyle=orthogonalEdgeStyle;rounded=0;orthogonalLoop=1;jettySize=auto;html=1;entryX=0.5;entryY=1;entryDx=0;entryDy=0;" parent="FvDFjdR7gVoKa_HivH6m-1" source="FvDFjdR7gVoKa_HivH6m-10" target="FvDFjdR7gVoKa_HivH6m-4" edge="1">
          
          <mxGeometry relative="1" as="geometry">
            
            <Array as="points">
              
              <mxPoint x="366" y="290" />
              
              <mxPoint x="215" y="290" />
              
            </Array>
            
          </mxGeometry>
          
        </mxCell>
        
        <mxCell id="FvDFjdR7gVoKa_HivH6m-10" value="基于动态分区的全局资源调度器" style="rounded=0;whiteSpace=wrap;html=1;fontSize=16;fillColor=#B9E0A5;" parent="FvDFjdR7gVoKa_HivH6m-1" vertex="1">
          
          <mxGeometry x="261" y="300" width="210" height="60" as="geometry" />
          
        </mxCell>
        
        <mxCell id="FvDFjdR7gVoKa_HivH6m-11" value="物流中心运行处理器" style="rounded=0;whiteSpace=wrap;html=1;fontSize=16;fillColor=#F8CECC;" parent="FvDFjdR7gVoKa_HivH6m-1" vertex="1">
          
          <mxGeometry x="150" y="390" width="130" height="60" as="geometry" />
          
        </mxCell>
        
        <mxCell id="FvDFjdR7gVoKa_HivH6m-12" value="业务RMI事件处理器" style="rounded=0;whiteSpace=wrap;html=1;fontSize=16;" parent="FvDFjdR7gVoKa_HivH6m-1" vertex="1">
          
          <mxGeometry x="450" y="390" width="130" height="60" as="geometry" />
          
        </mxCell>
        
        <mxCell id="FvDFjdR7gVoKa_HivH6m-13" value="" style="triangle;whiteSpace=wrap;html=1;" parent="FvDFjdR7gVoKa_HivH6m-1" vertex="1">
          
          <mxGeometry x="287" y="400" width="20" height="40" as="geometry" />
          
        </mxCell>
        
        <mxCell id="FvDFjdR7gVoKa_HivH6m-14" value="" style="triangle;whiteSpace=wrap;html=1;rotation=-181;" parent="FvDFjdR7gVoKa_HivH6m-1" vertex="1">
          
          <mxGeometry x="424" y="400" width="20" height="40" as="geometry" />
          
        </mxCell>
        
        <mxCell id="FvDFjdR7gVoKa_HivH6m-15" value="&lt;font style=&quot;font-size: 16px&quot;&gt;部署模型与资源映射关系&lt;/font&gt;" style="shape=process;whiteSpace=wrap;html=1;backgroundOutline=1;" parent="FvDFjdR7gVoKa_HivH6m-1" vertex="1">
          
          <mxGeometry x="306" y="390" width="120" height="60" as="geometry" />
          
        </mxCell>
        
        <mxCell id="FvDFjdR7gVoKa_HivH6m-16" value="" style="endArrow=classic;html=1;exitX=0.5;exitY=1;exitDx=0;exitDy=0;entryX=0.5;entryY=0;entryDx=0;entryDy=0;" parent="FvDFjdR7gVoKa_HivH6m-1" source="FvDFjdR7gVoKa_HivH6m-2" target="FvDFjdR7gVoKa_HivH6m-4" edge="1">
          
          <mxGeometry width="50" height="50" relative="1" as="geometry">
            
            <mxPoint x="290" y="280" as="sourcePoint" />
            
            <mxPoint x="340" y="230" as="targetPoint" />
            
          </mxGeometry>
          
        </mxCell>
        
        <mxCell id="FvDFjdR7gVoKa_HivH6m-17" value="" style="endArrow=classic;html=1;exitX=0.5;exitY=1;exitDx=0;exitDy=0;entryX=0.5;entryY=0;entryDx=0;entryDy=0;" parent="FvDFjdR7gVoKa_HivH6m-1" source="FvDFjdR7gVoKa_HivH6m-3" target="FvDFjdR7gVoKa_HivH6m-5" edge="1">
          
          <mxGeometry width="50" height="50" relative="1" as="geometry">
            
            <mxPoint x="260" y="190" as="sourcePoint" />
            
            <mxPoint x="260" y="220" as="targetPoint" />
            
          </mxGeometry>
          
        </mxCell>
        
      </root>
      
    </mxGraphModel>
    
  </diagram>
</mxfile>
